<svg width="19" height="19" viewBox="0 0 19 19" fill="none" xmlns="http://www.w3.org/2000/svg">
<mask id="path-1-inside-1_389_120" fill="white">
<path d="M18.6364 0.362332C18.3944 0.120777 18.0764 0 17.7592 0C17.442 0 17.124 0.120777 16.882 0.362332L13.232 4.00501V3.31519H0V19H15.7131V5.7919H14.9523L18.6364 2.11361C19.1212 1.6305 19.1212 0.846216 18.6364 0.362332ZM14.8856 18.1739H0.826803V4.1405H13.0962L6.6152 10.6091V12.3952H8.33629L14.8856 5.85693V18.1731V18.1739ZM18.0516 1.52985L7.99424 11.5699H7.44278V10.9505L17.4668 0.944542C17.5715 0.840023 17.6948 0.824539 17.7584 0.824539C17.822 0.824539 17.9461 0.840023 18.0508 0.945316C18.1563 1.05061 18.1726 1.17371 18.1726 1.23719C18.1726 1.30068 18.1571 1.42301 18.0508 1.52907L18.0516 1.52985Z"/>
</mask>
<path d="M18.6364 0.362332C18.3944 0.120777 18.0764 0 17.7592 0C17.442 0 17.124 0.120777 16.882 0.362332L13.232 4.00501V3.31519H0V19H15.7131V5.7919H14.9523L18.6364 2.11361C19.1212 1.6305 19.1212 0.846216 18.6364 0.362332ZM14.8856 18.1739H0.826803V4.1405H13.0962L6.6152 10.6091V12.3952H8.33629L14.8856 5.85693V18.1731V18.1739ZM18.0516 1.52985L7.99424 11.5699H7.44278V10.9505L17.4668 0.944542C17.5715 0.840023 17.6948 0.824539 17.7584 0.824539C17.822 0.824539 17.9461 0.840023 18.0508 0.945316C18.1563 1.05061 18.1726 1.17371 18.1726 1.23719C18.1726 1.30068 18.1571 1.42301 18.0508 1.52907L18.0516 1.52985Z" fill="#C7CDD3"/>
<path d="M16.882 0.362332L34.5418 18.0578L34.5437 18.0559L16.882 0.362332ZM13.232 4.00501H-11.768V64.2744L30.8918 21.7005L13.232 4.00501ZM13.232 3.31519H38.232V-21.6848H13.232V3.31519ZM0 3.31519V-21.6848H-25V3.31519H0ZM0 19H-25V44H0V19ZM15.7131 19V44H40.7131V19H15.7131ZM15.7131 5.7919H40.7131V-19.2081H15.7131V5.7919ZM14.9523 5.7919L-2.7113 -11.8999L-45.4712 30.7919H14.9523V5.7919ZM18.6364 2.11361L0.988892 -15.5941L0.980871 -15.5861L0.972857 -15.5781L18.6364 2.11361ZM14.8856 18.1739V43.1739H39.8856V18.1739H14.8856ZM0.826803 18.1739H-24.1732V43.1739H0.826803V18.1739ZM0.826803 4.1405V-20.8595H-24.1732V4.1405H0.826803ZM13.0962 4.1405L30.7569 21.8352L73.5338 -20.8595H13.0962V4.1405ZM6.6152 10.6091L-11.0455 -7.0856L-18.3848 0.239633V10.6091H6.6152ZM6.6152 12.3952H-18.3848V37.3952H6.6152V12.3952ZM8.33629 12.3952V37.3952H18.6793L25.999 30.0877L8.33629 12.3952ZM14.8856 5.85693H39.8856V-54.4265L-2.77719 -11.8356L14.8856 5.85693ZM18.0516 1.52985L35.714 19.2228L53.434 1.53338L35.7175 -16.1596L18.0516 1.52985ZM7.99424 11.5699V36.5699H18.3369L25.6566 29.2628L7.99424 11.5699ZM7.44278 11.5699H-17.5572V36.5699H7.44278V11.5699ZM7.44278 10.9505L-10.2189 -6.74312L-17.5572 0.581937V10.9505H7.44278ZM17.4668 0.944542L-0.194906 -16.7491L-0.194907 -16.7491L17.4668 0.944542ZM18.0508 0.945316L0.323961 18.5736L0.356486 18.6063L0.389131 18.6389L18.0508 0.945316ZM18.0508 1.52907L0.389131 -16.1645L-17.3322 1.52485L0.384912 19.2185L18.0508 1.52907ZM18.6364 0.362332L36.2981 -17.3313C31.1637 -22.4565 24.4031 -25 17.7592 -25V0V25C11.7498 25 5.62523 22.6981 0.97472 18.0559L18.6364 0.362332ZM17.7592 0V-25C11.1154 -25 4.35477 -22.4565 -0.779718 -17.3313L16.882 0.362332L34.5437 18.0559C29.8932 22.6981 23.7686 25 17.7592 25V0ZM16.882 0.362332L-0.777838 -17.3332L-4.42787 -13.6905L13.232 4.00501L30.8918 21.7005L34.5418 18.0578L16.882 0.362332ZM13.232 4.00501H38.232V3.31519H13.232H-11.768V4.00501H13.232ZM13.232 3.31519V-21.6848H0V3.31519V28.3152H13.232V3.31519ZM0 3.31519H-25V19H0H25V3.31519H0ZM0 19V44H15.7131V19V-6H0V19ZM15.7131 19H40.7131V5.7919H15.7131H-9.28686V19H15.7131ZM15.7131 5.7919V-19.2081H14.9523V5.7919V30.7919H15.7131V5.7919ZM14.9523 5.7919L32.6158 23.4837L36.3 19.8054L18.6364 2.11361L0.972857 -15.5781L-2.7113 -11.8999L14.9523 5.7919ZM18.6364 2.11361L36.284 19.8214C46.5798 9.56048 46.5594 -7.08848 36.2981 -17.3313L18.6364 0.362332L0.97472 18.0559C-8.31707 8.78091 -8.33747 -6.29949 0.988892 -15.5941L18.6364 2.11361ZM14.8856 18.1739V-6.82609H0.826803V18.1739V43.1739H14.8856V18.1739ZM0.826803 18.1739H25.8268V4.1405H0.826803H-24.1732V18.1739H0.826803ZM0.826803 4.1405V29.1405H13.0962V4.1405V-20.8595H0.826803V4.1405ZM13.0962 4.1405L-4.56443 -13.5542L-11.0455 -7.0856L6.6152 10.6091L24.2759 28.3037L30.7569 21.8352L13.0962 4.1405ZM6.6152 10.6091H-18.3848V12.3952H6.6152H31.6152V10.6091H6.6152ZM6.6152 12.3952V37.3952H8.33629V12.3952V-12.6048H6.6152V12.3952ZM8.33629 12.3952L25.999 30.0877L32.5483 23.5495L14.8856 5.85693L-2.77719 -11.8356L-9.32647 -5.29739L8.33629 12.3952ZM14.8856 5.85693H-10.1144V18.1731H14.8856H39.8856V5.85693H14.8856ZM14.8856 18.1731H-10.1144V18.1739H14.8856H39.8856V18.1731H14.8856ZM18.0516 1.52985L0.389223 -16.1631L-9.66815 -6.12307L7.99424 11.5699L25.6566 29.2628L35.714 19.2228L18.0516 1.52985ZM7.99424 11.5699V-13.4301H7.44278V11.5699V36.5699H7.99424V11.5699ZM7.44278 11.5699H32.4428V10.9505H7.44278H-17.5572V11.5699H7.44278ZM7.44278 10.9505L25.1045 28.6441L35.1285 18.6382L17.4668 0.944542L-0.194907 -16.7491L-10.2189 -6.74312L7.44278 10.9505ZM17.4668 0.944542L35.1285 18.6382C28.7723 24.9829 21.2991 25.8245 17.7584 25.8245V0.824539V-24.1755C14.0906 -24.1755 6.37071 -23.3028 -0.194906 -16.7491L17.4668 0.944542ZM17.7584 0.824539V25.8245C14.2406 25.8245 6.70718 24.9925 0.323961 18.5736L18.0508 0.945316L35.7777 -16.683C29.1851 -23.3125 21.4035 -24.1755 17.7584 -24.1755V0.824539ZM18.0508 0.945316L0.389131 18.6389C-5.88089 12.3802 -6.82739 4.99135 -6.82739 1.23719H18.1726H43.1726C43.1726 -2.64393 42.1935 -10.279 35.7126 -16.7483L18.0508 0.945316ZM18.1726 1.23719H-6.82739C-6.82739 -2.46931 -5.90378 -9.88297 0.389131 -16.1645L18.0508 1.52907L35.7126 19.2227C42.218 12.729 43.1726 5.07067 43.1726 1.23719H18.1726ZM18.0508 1.52907L0.384912 19.2185L0.385687 19.2192L18.0516 1.52985L35.7175 -16.1596L35.7168 -16.1603L18.0508 1.52907Z" fill="#C586C0" mask="url(#path-1-inside-1_389_120)"/>
</svg>
