<svg width="23" height="17" viewBox="0 0 23 17" fill="none" xmlns="http://www.w3.org/2000/svg">
<path d="M0.349976 4.00712C0.349976 2.72699 0.349975 2.08694 0.604935 1.598C0.829192 1.16791 1.18704 0.818238 1.62719 0.599107C2.12757 0.349976 2.78261 0.349976 4.09267 0.349976H8.15643C8.72857 0.349976 9.01465 0.349976 9.28389 0.41313C9.52249 0.469119 9.75068 0.561473 9.96003 0.686799C10.1961 0.828147 10.3984 1.0258 10.803 1.42113L10.9496 1.56454C11.3542 1.95986 11.5565 2.15752 11.7925 2.29887C12.0019 2.42419 12.2301 2.51655 12.4687 2.57254C12.7379 2.63569 13.024 2.63569 13.5962 2.63569H17.6599C18.97 2.63569 19.6251 2.63569 20.1254 2.88482C20.5655 3.10395 20.9234 3.45362 21.1476 3.88371C21.4026 4.37265 21.4026 5.01272 21.4026 6.29283V12.6928C21.4026 13.9729 21.4026 14.6131 21.1476 15.102C20.9234 15.532 20.5655 15.8817 20.1254 16.1008C19.6251 16.35 18.97 16.35 17.6599 16.35H4.09267C2.7826 16.35 2.12757 16.35 1.62719 16.1008C1.18704 15.8817 0.829192 15.532 0.604935 15.102C0.349975 14.6131 0.349976 13.9729 0.349976 12.6928V4.00712Z" stroke="#C586C0" stroke-width="0.7" stroke-linecap="round" stroke-linejoin="round"/>
<path fill-rule="evenodd" clip-rule="evenodd" d="M19.8763 6.06062H18.6921V7.24483C18.6921 7.37509 18.5862 7.48167 18.4552 7.48167C18.3243 7.48167 18.2184 7.37509 18.2184 7.24483V6.06062H17.0342C16.9032 6.06062 16.7974 5.95404 16.7974 5.82378C16.7974 5.69351 16.9032 5.58693 17.0342 5.58693H18.2184V4.40272C18.2184 4.27246 18.3243 4.16588 18.4552 4.16588C18.5862 4.16588 18.6921 4.27246 18.6921 4.40272V5.58693H19.8763C20.0073 5.58693 20.1131 5.69351 20.1131 5.82378C20.1131 5.95404 20.0073 6.06062 19.8763 6.06062ZM18.4552 2.0343C16.3623 2.0343 14.6658 3.73009 14.6658 5.82378C14.6658 7.91746 16.3623 9.61325 18.4552 9.61325C20.5482 9.61325 22.2447 7.91746 22.2447 5.82378C22.2447 3.73009 20.5482 2.0343 18.4552 2.0343Z" fill="#C586C0"/>
</svg>
