<svg width="18" height="14" viewBox="0 0 18 14" fill="none" xmlns="http://www.w3.org/2000/svg">
<path d="M0.5 3.47143C0.5 2.43133 0.5 1.91128 0.705879 1.51402C0.886967 1.16457 1.17593 0.880463 1.53135 0.702419C1.9354 0.5 2.46435 0.5 3.52222 0.5H6.80371C7.26572 0.5 7.49673 0.5 7.71414 0.551313C7.90681 0.596804 8.09107 0.671842 8.26012 0.773669C8.45071 0.888514 8.6141 1.04911 8.94078 1.37031L9.05922 1.48683C9.3859 1.80803 9.54929 1.96863 9.73988 2.08347C9.90893 2.1853 10.0932 2.26034 10.2859 2.30583C10.5033 2.35714 10.7343 2.35714 11.1963 2.35714H14.4778C15.5356 2.35714 16.0646 2.35714 16.4687 2.55956C16.8241 2.73761 17.1131 3.02171 17.2941 3.37116C17.5 3.76842 17.5 4.28848 17.5 5.32857V10.5286C17.5 11.5687 17.5 12.0888 17.2941 12.486C17.1131 12.8354 16.8241 13.1196 16.4687 13.2976C16.0646 13.5 15.5356 13.5 14.4778 13.5H3.52222C2.46434 13.5 1.9354 13.5 1.53135 13.2976C1.17593 13.1196 0.886967 12.8354 0.705879 12.486C0.5 12.0888 0.5 11.5687 0.5 10.5286V3.47143Z" stroke="white" stroke-linecap="round" stroke-linejoin="round"/>
</svg>
