<svg width="29" height="29" viewBox="0 0 29 29" fill="none" xmlns="http://www.w3.org/2000/svg">
<path d="M18.0741 0.498346C18.1542 0.518363 18.2343 0.53838 18.3169 0.559004C19.9215 0.97059 21.3872 1.72943 22.7233 2.68899C22.8088 2.74841 22.8942 2.80783 22.9823 2.86905C23.1882 3.05409 23.1882 3.05409 23.2467 3.23986C23.2372 3.5249 23.2229 3.73556 23.0546 3.97257C22.5163 4.16589 21.9931 3.97882 21.4738 3.79572C18.9308 2.93644 16.0307 3.11772 13.6108 4.24069C11.5247 5.26069 9.9238 7.01148 9.14757 9.16964C9.02257 9.5893 8.94089 10.0164 8.86862 10.4475C8.8516 10.5293 8.83458 10.6111 8.81704 10.6953C8.4987 13.0007 9.0101 15.1845 10.4243 17.049C11.3785 18.1934 12.8679 19.059 14.3547 19.3014C14.7212 19.3284 15.0857 19.331 15.4531 19.3299C15.5949 19.3321 15.5949 19.3321 15.7395 19.3343C17.2466 19.3353 18.6323 18.7546 19.71 17.7247C20.4842 16.8636 21.0445 15.6808 20.9864 14.5125C20.8583 13.5174 20.57 12.664 19.7474 12.0285C19.0271 11.5607 18.2786 11.4198 17.4232 11.5428C16.9996 11.6934 16.7497 11.8721 16.534 12.2616C16.4657 12.7404 16.4912 13.0528 16.7781 13.4539C17.0839 13.6647 17.2492 13.7146 17.6157 13.6943C17.9448 13.5988 18.0692 13.3645 18.2601 13.0945C18.5242 12.9649 18.7115 12.9745 19.0039 13.0033C19.2248 13.1345 19.2248 13.1345 19.3759 13.3684C19.5187 14.2604 19.182 15.1012 18.6948 15.836C18.199 16.4723 17.4137 16.8733 16.6325 17.0815C15.3617 17.2416 14.3225 17.0458 13.2389 16.3805C12.2495 15.575 11.4999 14.4977 11.3371 13.221C11.3238 12.883 11.3248 12.5485 11.3327 12.2103C11.3323 12.0404 11.3323 12.0404 11.332 11.8671C11.3392 11.1952 11.419 10.6205 11.6582 9.99113C11.6864 9.90747 11.7147 9.82381 11.7439 9.73762C12.4416 7.95103 13.8288 6.70175 15.5635 5.88367C17.7477 4.96246 20.1642 5.05499 22.3611 5.90279C23.7041 6.4525 24.8306 7.17727 25.8848 8.16559C25.9353 8.21148 25.9859 8.25737 26.0379 8.30465C26.4658 8.7049 26.7843 9.1331 27.0936 9.62602C27.1417 9.70193 27.1897 9.77783 27.2392 9.85604C28.4038 11.7266 29.0134 13.7256 28.9998 15.9184C28.9996 15.988 28.9995 16.0576 28.9994 16.1293C28.9936 17.3529 28.853 18.4915 28.4884 19.6665C28.467 19.7371 28.4456 19.8078 28.4236 19.8806C27.4477 23.0285 25.2784 25.6778 22.3325 27.2545C19.1669 28.8216 15.1145 29.5197 11.6481 28.5659C11.3777 28.4958 11.1024 28.4538 10.8271 28.4062C7.38376 27.6757 4.3283 25.32 2.42156 22.4795C1.50315 21.0786 0.897334 19.6042 0.424456 18.0064C0.406334 17.947 0.388212 17.8876 0.369541 17.8264C0.0322093 16.6257 -0.0032643 15.3702 0.000213608 14.1328C0.000295077 14.0613 0.000376546 13.9898 0.000460485 13.9161C0.0141248 10.2617 1.43027 6.94807 4.03342 4.33197C4.11917 4.24131 4.20477 4.15051 4.29022 4.05956C5.81797 2.46208 7.80455 1.4009 9.89145 0.6809C9.96056 0.656705 10.0297 0.632511 10.1009 0.607584C10.5559 0.452646 11.0038 0.339781 11.478 0.258745C11.5389 0.247685 11.5999 0.236624 11.6627 0.225229C13.8134 -0.156734 15.9659 -0.0445062 18.0741 0.498346ZM10.1704 1.95877C10.0724 1.99207 9.97431 2.02537 9.87329 2.05968C8.04873 2.72117 6.5423 3.74436 5.14923 5.06218C5.07108 5.13207 4.99293 5.20196 4.91241 5.27397C3.78757 6.31135 2.97929 7.60957 2.3597 8.98708C2.3331 9.04618 2.30651 9.10527 2.27911 9.16616C1.58185 10.7415 1.3 12.3206 1.31362 14.0358C1.31425 14.1515 1.31488 14.2671 1.31553 14.3862C1.358 18.1763 2.86019 21.5629 5.60617 24.22C8.56152 26.868 12.3079 27.7343 16.2144 27.6075C18.8921 27.4733 21.585 26.4482 23.6532 24.778C23.7227 24.7225 23.7922 24.6671 23.8638 24.61C25.9312 22.9021 27.3416 20.1413 27.6357 17.5059C27.7485 15.9883 27.7548 14.4612 27.2796 13.0033C27.2504 12.9105 27.2504 12.9105 27.2207 12.8158C26.5176 10.6312 25.079 8.70229 23.0023 7.61793C22.9034 7.56534 22.8045 7.51274 22.7026 7.45855C20.9839 6.58596 19.0377 6.24702 17.1442 6.70516C17.0684 6.72187 16.9925 6.73858 16.9143 6.75579C15.5531 7.09885 14.2259 8.05213 13.4677 9.2085C12.9034 10.1846 12.648 11.0587 12.6519 12.1761C12.6504 12.2617 12.6489 12.3473 12.6474 12.4355C12.6467 13.4368 12.9717 14.2772 13.6573 15.0228C14.249 15.5756 14.9524 15.8526 15.7669 15.8842C16.4179 15.8541 16.9597 15.6684 17.429 15.2167C17.4885 15.1489 17.5479 15.0812 17.6092 15.0113C17.5315 15.0078 17.5315 15.0078 17.4523 15.0042C16.7457 14.9527 16.2062 14.7752 15.7204 14.2526C15.18 13.5661 15.0931 12.9498 15.1916 12.0905C15.2787 11.8163 15.3988 11.5966 15.5635 11.3603C15.6383 11.2417 15.6383 11.2417 15.7146 11.1207C16.3366 10.5101 16.9956 10.2525 17.8591 10.2478C19.1498 10.2596 20.1885 10.647 21.1313 11.5225C22.0739 12.4998 22.3165 13.7102 22.2809 15.0124C22.1813 16.6231 21.3159 18.0228 20.1256 19.1017C19.2276 19.8234 18.2456 20.1721 17.1442 20.4879C17.0862 20.5048 17.0282 20.5217 16.9685 20.5391C14.9531 20.9516 12.8975 20.4489 11.1932 19.3926C10.6845 19.0422 10.2215 18.6533 9.79846 18.206C9.73446 18.1405 9.67045 18.075 9.6045 18.0074C9.12131 17.5008 8.73247 16.9948 8.40369 16.3805C8.3627 16.3048 8.32171 16.2292 8.27947 16.1512C7.79558 15.1883 7.50907 14.0766 7.47385 13.0033C7.47145 12.9422 7.46905 12.8811 7.46658 12.8182C7.36402 9.86873 8.11272 7.3835 10.1359 5.15845C12.2424 2.99735 15.0197 2.14518 17.9811 1.95877C17.9504 1.89853 17.9197 1.83829 17.8881 1.77622C17.6397 1.70411 17.3966 1.64308 17.1442 1.58796C17.0763 1.57214 17.0083 1.55631 16.9383 1.54001C14.7507 1.04749 12.276 1.20725 10.1704 1.95877Z" fill="white"/>
</svg>
