<svg width="17" height="17" viewBox="0 0 17 17" fill="none" xmlns="http://www.w3.org/2000/svg">
<path fill-rule="evenodd" clip-rule="evenodd" d="M12.3939 11.3007C13.3461 10.1104 13.9154 8.60052 13.9154 6.95771C13.9154 3.11507 10.8003 0 6.95771 0C3.11507 0 0 3.11507 0 6.95771C0 10.8003 3.11507 13.9154 6.95771 13.9154C8.60052 13.9154 10.1104 13.3461 11.3007 12.3939L15.6802 16.7736C15.9821 17.0755 16.4717 17.0755 16.7736 16.7736C17.0755 16.4717 17.0755 15.9821 16.7736 15.6802L12.3939 11.3007ZM6.95771 12.377C3.9647 12.377 1.5384 9.95071 1.5384 6.95771C1.5384 3.9647 3.9647 1.5384 6.95771 1.5384C9.95071 1.5384 12.377 3.9647 12.377 6.95771C12.377 9.95071 9.95071 12.377 6.95771 12.377Z" fill="#C7CDD3"/>
</svg>
