<svg width="20" height="20" viewBox="0 0 20 20" fill="none" xmlns="http://www.w3.org/2000/svg">
<path d="M9.99997 12.6818C11.4309 12.6818 12.5909 11.5218 12.5909 10.0909C12.5909 8.65999 11.4309 7.5 9.99997 7.5C8.56905 7.5 7.40906 8.65999 7.40906 10.0909C7.40906 11.5218 8.56905 12.6818 9.99997 12.6818Z" stroke="white" stroke-linecap="round" stroke-linejoin="round"/>
<path d="M16.3909 12.5909C16.2759 12.8514 16.2417 13.1403 16.2925 13.4205C16.3432 13.7007 16.4768 13.9592 16.6759 14.1627L16.7277 14.2145C16.8883 14.375 17.0157 14.5655 17.1026 14.7751C17.1896 14.9848 17.2343 15.2096 17.2343 15.4366C17.2343 15.6636 17.1896 15.8883 17.1026 16.098C17.0157 16.3077 16.8883 16.4982 16.7277 16.6586C16.5673 16.8192 16.3768 16.9466 16.1671 17.0336C15.9574 17.1205 15.7327 17.1652 15.5057 17.1652C15.2787 17.1652 15.0539 17.1205 14.8442 17.0336C14.6346 16.9466 14.4441 16.8192 14.2836 16.6586L14.2318 16.6068C14.0283 16.4077 13.7698 16.2742 13.4896 16.2234C13.2094 16.1726 12.9205 16.2069 12.66 16.3218C12.4046 16.4313 12.1867 16.6131 12.0333 16.8448C11.8798 17.0765 11.7975 17.348 11.7964 17.6259V17.7727C11.7964 18.2308 11.6144 18.6702 11.2905 18.9941C10.9665 19.318 10.5272 19.5 10.0691 19.5C9.61099 19.5 9.17165 19.318 8.84773 18.9941C8.5238 18.6702 8.34182 18.2308 8.34182 17.7727V17.695C8.33513 17.4091 8.2426 17.1319 8.07626 16.8993C7.90992 16.6668 7.67745 16.4896 7.40909 16.3909C7.1486 16.2759 6.85965 16.2417 6.57949 16.2925C6.29933 16.3432 6.04081 16.4768 5.83727 16.6759L5.78545 16.7277C5.62504 16.8883 5.43454 17.0157 5.22485 17.1026C5.01516 17.1896 4.7904 17.2343 4.56341 17.2343C4.33642 17.2343 4.11165 17.1896 3.90197 17.1026C3.69228 17.0157 3.50178 16.8883 3.34136 16.7277C3.18077 16.5673 3.05337 16.3768 2.96644 16.1671C2.87952 15.9574 2.83478 15.7327 2.83478 15.5057C2.83478 15.2787 2.87952 15.0539 2.96644 14.8442C3.05337 14.6346 3.18077 14.4441 3.34136 14.2836L3.39318 14.2318C3.59228 14.0283 3.72584 13.7698 3.77664 13.4896C3.82744 13.2094 3.79314 12.9205 3.67818 12.66C3.5687 12.4046 3.38693 12.1867 3.15522 12.0333C2.92351 11.8798 2.652 11.7975 2.37409 11.7964H2.22727C1.76917 11.7964 1.32983 11.6144 1.00591 11.2905C0.68198 10.9665 0.5 10.5272 0.5 10.0691C0.5 9.61099 0.68198 9.17165 1.00591 8.84773C1.32983 8.5238 1.76917 8.34182 2.22727 8.34182H2.305C2.59086 8.33513 2.8681 8.2426 3.10067 8.07626C3.33324 7.90992 3.51039 7.67745 3.60909 7.40909C3.72405 7.1486 3.75835 6.85965 3.70755 6.57949C3.65675 6.29933 3.52319 6.04081 3.32409 5.83727L3.27227 5.78545C3.11168 5.62504 2.98428 5.43454 2.89735 5.22485C2.81043 5.01516 2.76569 4.7904 2.76569 4.56341C2.76569 4.33642 2.81043 4.11165 2.89735 3.90197C2.98428 3.69228 3.11168 3.50178 3.27227 3.34136C3.43269 3.18077 3.62319 3.05337 3.83288 2.96644C4.04256 2.87952 4.26733 2.83478 4.49432 2.83478C4.72131 2.83478 4.94607 2.87952 5.15576 2.96644C5.36545 3.05337 5.55595 3.18077 5.71636 3.34136L5.76818 3.39318C5.97172 3.59228 6.23024 3.72584 6.5104 3.77664C6.79056 3.82744 7.07951 3.79314 7.34 3.67818H7.40909C7.66453 3.5687 7.88238 3.38693 8.03583 3.15522C8.18927 2.92351 8.27162 2.652 8.27273 2.37409V2.22727C8.27273 1.76917 8.45471 1.32983 8.77863 1.00591C9.10256 0.68198 9.5419 0.5 10 0.5C10.4581 0.5 10.8974 0.68198 11.2214 1.00591C11.5453 1.32983 11.7273 1.76917 11.7273 2.22727V2.305C11.7284 2.58291 11.8107 2.85442 11.9642 3.08613C12.1176 3.31783 12.3355 3.49961 12.5909 3.60909C12.8514 3.72405 13.1403 3.75835 13.4205 3.70755C13.7007 3.65675 13.9592 3.52319 14.1627 3.32409L14.2145 3.27227C14.375 3.11168 14.5655 2.98428 14.7751 2.89735C14.9848 2.81043 15.2096 2.76569 15.4366 2.76569C15.6636 2.76569 15.8883 2.81043 16.098 2.89735C16.3077 2.98428 16.4982 3.11168 16.6586 3.27227C16.8192 3.43269 16.9466 3.62319 17.0336 3.83288C17.1205 4.04256 17.1652 4.26733 17.1652 4.49432C17.1652 4.72131 17.1205 4.94607 17.0336 5.15576C16.9466 5.36545 16.8192 5.55595 16.6586 5.71636L16.6068 5.76818C16.4077 5.97172 16.2742 6.23024 16.2234 6.5104C16.1726 6.79056 16.2069 7.07951 16.3218 7.34V7.40909C16.4313 7.66453 16.6131 7.88238 16.8448 8.03583C17.0765 8.18927 17.348 8.27162 17.6259 8.27273H17.7727C18.2308 8.27273 18.6702 8.45471 18.9941 8.77863C19.318 9.10256 19.5 9.5419 19.5 10C19.5 10.4581 19.318 10.8974 18.9941 11.2214C18.6702 11.5453 18.2308 11.7273 17.7727 11.7273H17.695C17.4171 11.7284 17.1456 11.8107 16.9139 11.9642C16.6822 12.1176 16.5004 12.3355 16.3909 12.5909V12.5909Z" stroke="white" stroke-linecap="round" stroke-linejoin="round"/>
</svg>
